<?xml version="1.0" encoding="UTF-8" standalone="no"?>
<!-- Created with Inkscape (http://www.inkscape.org/) -->

<svg
   xmlns:dc="http://purl.org/dc/elements/1.1/"
   xmlns:cc="http://creativecommons.org/ns#"
   xmlns:rdf="http://www.w3.org/1999/02/22-rdf-syntax-ns#"
   xmlns:svg="http://www.w3.org/2000/svg"
   xmlns="http://www.w3.org/2000/svg"
   xmlns:sodipodi="http://sodipodi.sourceforge.net/DTD/sodipodi-0.dtd"
   xmlns:inkscape="http://www.inkscape.org/namespaces/inkscape"
   width="1052.3622"
   height="744.09448"
   id="svg2"
   version="1.1"
   inkscape:version="0.48.1 r9760"
   sodipodi:docname="suport_camera.svg">
  <defs
     id="defs4">
    <marker
       style="overflow:visible"
       id="DistanceEnd"
       refX="0.0"
       refY="0.0"
       orient="auto"
       inkscape:stockid="DistanceEnd">
      <g
         id="g3944">
        <path
           style="fill:none;stroke:#ffffff;stroke-width:1.15;stroke-linecap:square"
           d="M 0,0 L -2,0"
           id="path2316" />
        <path
           style="fill:#000000;fill-rule:evenodd;stroke:none"
           d="M 0,0 L -13,4 L -9,0 -13,-4 L 0,0 z "
           id="path2312" />
        <path
           style="fill:none;stroke:#000000;stroke-width:1;stroke-linecap:square"
           d="M 0,-4 L 0,40"
           id="path2314" />
      </g>
    </marker>
    <marker
       style="overflow:visible"
       id="DistanceStart"
       refX="0.0"
       refY="0.0"
       orient="auto"
       inkscape:stockid="DistanceStart">
      <g
         id="g2300">
        <path
           style="fill:none;stroke:#ffffff;stroke-width:1.15;stroke-linecap:square"
           d="M 0,0 L 2,0"
           id="path2306" />
        <path
           style="fill:#000000;fill-rule:evenodd;stroke:none"
           d="M 0,0 L 13,4 L 9,0 13,-4 L 0,0 z "
           id="path2302" />
        <path
           style="fill:none;stroke:#000000;stroke-width:1;stroke-linecap:square"
           d="M 0,-4 L 0,40"
           id="path2304" />
      </g>
    </marker>
    <marker
       inkscape:stockid="Arrow1Mend"
       orient="auto"
       refY="0.0"
       refX="0.0"
       id="Arrow1Mend"
       style="overflow:visible;">
      <path
         id="path3897"
         d="M 0.0,0.0 L 5.0,-5.0 L -12.5,0.0 L 5.0,5.0 L 0.0,0.0 z "
         style="fill-rule:evenodd;stroke:#000000;stroke-width:1.0pt;marker-start:none;"
         transform="scale(0.4) rotate(180) translate(10,0)" />
    </marker>
    <marker
       inkscape:stockid="Arrow1Mstart"
       orient="auto"
       refY="0.0"
       refX="0.0"
       id="Arrow1Mstart"
       style="overflow:visible">
      <path
         id="path3894"
         d="M 0.0,0.0 L 5.0,-5.0 L -12.5,0.0 L 5.0,5.0 L 0.0,0.0 z "
         style="fill-rule:evenodd;stroke:#000000;stroke-width:1.0pt;marker-start:none"
         transform="scale(0.4) translate(10,0)" />
    </marker>
  </defs>
  <sodipodi:namedview
     id="base"
     pagecolor="#ffffff"
     bordercolor="#666666"
     borderopacity="1.0"
     inkscape:pageopacity="0.0"
     inkscape:pageshadow="2"
     inkscape:zoom="0.98994949"
     inkscape:cx="268.32586"
     inkscape:cy="428.03207"
     inkscape:document-units="px"
     inkscape:current-layer="layer1"
     showgrid="false"
     inkscape:window-width="1280"
     inkscape:window-height="776"
     inkscape:window-x="0"
     inkscape:window-y="24"
     inkscape:window-maximized="1" />
  <metadata
     id="metadata7">
    <rdf:RDF>
      <cc:Work
         rdf:about="">
        <dc:format>image/svg+xml</dc:format>
        <dc:type
           rdf:resource="http://purl.org/dc/dcmitype/StillImage" />
        <dc:title></dc:title>
      </cc:Work>
    </rdf:RDF>
  </metadata>
  <g
     inkscape:label="Layer 1"
     inkscape:groupmode="layer"
     id="layer1"
     transform="translate(0,-308.2677)">
    <text
       xml:space="preserve"
       style="font-size:12px;font-style:normal;font-variant:normal;font-weight:normal;font-stretch:normal;line-height:125%;letter-spacing:0px;word-spacing:0px;fill:#000000;fill-opacity:1;stroke:none;font-family:Arial;-inkscape-font-specification:Arial"
       x="332.15814"
       y="417.70898"
       id="text3823"
       sodipodi:linespacing="125%"><tspan
         sodipodi:role="line"
         id="tspan3825"
         x="332.15814"
         y="417.70898">ø 6.0 mm</tspan></text>
    <text
       xml:space="preserve"
       style="font-size:12px;font-style:normal;font-variant:normal;font-weight:normal;font-stretch:normal;line-height:125%;letter-spacing:0px;word-spacing:0px;fill:#000000;fill-opacity:1;stroke:none;font-family:Arial;-inkscape-font-specification:Arial"
       x="361.07144"
       y="187.66591"
       id="text3827"
       sodipodi:linespacing="125%"
       transform="translate(0,308.2677)"><tspan
         sodipodi:role="line"
         id="tspan3829"
         x="361.07144"
         y="187.66591" /></text>
    <text
       sodipodi:linespacing="125%"
       id="text3839"
       y="781.38965"
       x="201.55161"
       style="font-size:12px;font-style:normal;font-variant:normal;font-weight:normal;font-stretch:normal;line-height:125%;letter-spacing:0px;word-spacing:0px;fill:#000000;fill-opacity:1;stroke:none;font-family:Arial;-inkscape-font-specification:Arial"
       xml:space="preserve"><tspan
         y="781.38965"
         x="201.55161"
         id="tspan3841"
         sodipodi:role="line">40.6 mm</tspan></text>
    <text
       xml:space="preserve"
       style="font-size:12px;font-style:normal;font-variant:normal;font-weight:normal;font-stretch:normal;line-height:125%;letter-spacing:0px;word-spacing:0px;fill:#000000;fill-opacity:1;stroke:none;font-family:Arial;-inkscape-font-specification:Arial"
       x="61.597874"
       y="502.86743"
       id="text3835"
       sodipodi:linespacing="125%"><tspan
         sodipodi:role="line"
         id="tspan3837"
         x="61.597874"
         y="502.86743">30.0 mm</tspan></text>
    <text
       sodipodi:linespacing="125%"
       id="text3831"
       y="538.94934"
       x="319.71072"
       style="font-size:12px;font-style:normal;font-variant:normal;font-weight:normal;font-stretch:normal;line-height:125%;letter-spacing:0px;word-spacing:0px;fill:#000000;fill-opacity:1;stroke:none;font-family:Arial;-inkscape-font-specification:Arial"
       xml:space="preserve"><tspan
         y="538.94934"
         x="319.71072"
         id="tspan3833"
         sodipodi:role="line">ø 26.0 mm</tspan></text>
    <path
       inkscape:connector-curvature="0"
       id="path4697"
       d="m 289.96131,761.84053 -142.62066,0"
       style="fill:none;stroke:#000000;stroke-width:1;stroke-linecap:butt;stroke-linejoin:miter;stroke-miterlimit:4;stroke-opacity:1;stroke-dasharray:2, 1;stroke-dashoffset:0;marker-start:url(#DistanceStart);marker-mid:none;marker-end:url(#DistanceEnd)" />
    <path
       style="fill:none;stroke:#000000;stroke-width:1;stroke-linecap:butt;stroke-linejoin:miter;stroke-miterlimit:4;stroke-opacity:1;stroke-dasharray:2, 1;stroke-dashoffset:0;marker-start:url(#DistanceStart);marker-mid:none;marker-end:url(#DistanceEnd)"
       d="m 127.98272,554.70035 0,-105.32928"
       id="path5092"
       inkscape:connector-curvature="0" />
    <path
       style="fill:none;stroke:#000000;stroke-width:1px;stroke-linecap:butt;stroke-linejoin:miter;stroke-opacity:1;marker-start:url(#Arrow1Mstart)"
       d="m 270.51994,515.95464 16.07143,16.07142 28.92857,0"
       id="path5396"
       inkscape:connector-curvature="0" />
    <path
       style="fill:none;stroke:#000000;stroke-width:1px;stroke-linecap:butt;stroke-linejoin:miter;stroke-opacity:1;marker-start:url(#Arrow1Mstart)"
       d="m 283.99645,439.61545 23.48604,-23.48605 21.97082,0"
       id="path5398"
       inkscape:connector-curvature="0" />
    <path
       inkscape:connector-curvature="0"
       id="path6233"
       d="m 168.73815,409.35096 105.32928,0"
       style="fill:none;stroke:#000000;stroke-width:1;stroke-linecap:butt;stroke-linejoin:miter;stroke-miterlimit:4;stroke-opacity:1;stroke-dasharray:2, 1;stroke-dashoffset:0;marker-start:url(#DistanceStart);marker-mid:none;marker-end:url(#DistanceEnd)" />
    <rect
       style="fill:none;stroke:#000000;stroke-width:1;stroke-linecap:round;stroke-miterlimit:4;stroke-opacity:1;stroke-dasharray:none;stroke-dashoffset:0"
       id="rect5788"
       width="1010.1525"
       height="697.00525"
       x="21.104828"
       y="331.81232" />
    <rect
       style="fill:none;stroke:#000000;stroke-width:1;stroke-linecap:round;stroke-miterlimit:4;stroke-opacity:1;stroke-dasharray:none;stroke-dashoffset:0"
       id="rect5790"
       width="282.96671"
       height="34.935207"
       x="748.29065"
       y="993.88239" />
    <text
       xml:space="preserve"
       style="font-size:12px;font-style:normal;font-variant:normal;font-weight:normal;font-stretch:normal;line-height:125%;letter-spacing:0px;word-spacing:0px;fill:#000000;fill-opacity:1;stroke:none;font-family:Arial;-inkscape-font-specification:Arial"
       x="835.39612"
       y="919.02203"
       id="text5792"
       sodipodi:linespacing="125%"><tspan
         sodipodi:role="line"
         id="tspan5794"
         x="835.39612"
         y="919.02203" /></text>
    <text
       sodipodi:linespacing="125%"
       id="text6208"
       y="944.49799"
       x="756.25739"
       style="font-size:12px;font-style:normal;font-variant:normal;font-weight:normal;font-stretch:normal;line-height:125%;letter-spacing:0px;word-spacing:0px;fill:#000000;fill-opacity:1;stroke:none;font-family:Arial;-inkscape-font-specification:Arial"
       xml:space="preserve"><tspan
         y="944.49799"
         x="756.25739"
         id="tspan6210"
         sodipodi:role="line">Título: Suporte de espelho</tspan></text>
    <text
       xml:space="preserve"
       style="font-size:12px;font-style:normal;font-variant:normal;font-weight:normal;font-stretch:normal;line-height:125%;letter-spacing:0px;word-spacing:0px;fill:#000000;fill-opacity:1;stroke:none;font-family:Arial;-inkscape-font-specification:Arial"
       x="928.51404"
       y="945.61713"
       id="text5796"
       sodipodi:linespacing="125%"><tspan
         sodipodi:role="line"
         id="tspan5798"
         x="928.51404"
         y="945.61713">Data: 07/10/2011</tspan></text>
    <text
       sodipodi:linespacing="125%"
       id="text5804"
       y="1014.4613"
       x="756.09918"
       style="font-size:12px;font-style:normal;font-variant:normal;font-weight:normal;font-stretch:normal;line-height:125%;letter-spacing:0px;word-spacing:0px;fill:#000000;fill-opacity:1;stroke:none;font-family:Arial;-inkscape-font-specification:Arial"
       xml:space="preserve"><tspan
         y="1014.4613"
         x="756.09918"
         id="tspan5806"
         sodipodi:role="line">Email: bernardo@kyotoku.org</tspan></text>
    <text
       xml:space="preserve"
       style="font-size:12px;font-style:normal;font-variant:normal;font-weight:normal;font-stretch:normal;line-height:125%;letter-spacing:0px;word-spacing:0px;fill:#000000;fill-opacity:1;stroke:none;font-family:Arial;-inkscape-font-specification:Arial"
       x="756.55621"
       y="979.33093"
       id="text5800"
       sodipodi:linespacing="125%"><tspan
         sodipodi:role="line"
         id="tspan5802"
         x="756.55621"
         y="979.33093">Autor: Bernardo Kyotoku</tspan></text>
    <flowRoot
       xml:space="preserve"
       id="flowRoot5808"
       style="fill:black;stroke:none;stroke-opacity:1;stroke-width:1px;stroke-linejoin:miter;stroke-linecap:butt;fill-opacity:1;font-family:Arial;font-style:normal;font-weight:normal;font-size:12px;line-height:125%;letter-spacing:0px;word-spacing:0px;-inkscape-font-specification:Arial;font-stretch:normal;font-variant:normal"><flowRegion
         id="flowRegion5810"><rect
           id="rect5812"
           width="17.172594"
           height="15.152288"
           x="829.0827"
           y="598.38" /></flowRegion><flowPara
         id="flowPara5814"></flowPara></flowRoot>    <rect
       y="958.83112"
       x="748.29065"
       height="34.935207"
       width="282.96671"
       id="rect6204"
       style="fill:none;stroke:#000000;stroke-width:1;stroke-linecap:round;stroke-miterlimit:4;stroke-opacity:1;stroke-dasharray:none;stroke-dashoffset:0" />
    <rect
       style="fill:none;stroke:#000000;stroke-width:1;stroke-linecap:round;stroke-miterlimit:4;stroke-opacity:1;stroke-dasharray:none;stroke-dashoffset:0"
       id="rect6206"
       width="282.96671"
       height="34.935207"
       x="748.29065"
       y="923.85461" />
    <path
       style="fill:none;stroke:#000000;stroke-width:1px;stroke-linecap:butt;stroke-linejoin:miter;stroke-opacity:1"
       d="m 911.41014,615.04749 0,35.10281"
       id="path6212"
       inkscape:connector-curvature="0"
       transform="translate(0,308.2677)" />
    <text
       sodipodi:linespacing="125%"
       id="text6247"
       y="397.81158"
       x="203.52431"
       style="font-size:12px;font-style:normal;font-variant:normal;font-weight:normal;font-stretch:normal;line-height:125%;letter-spacing:0px;word-spacing:0px;fill:#000000;fill-opacity:1;stroke:none;font-family:Arial;-inkscape-font-specification:Arial"
       xml:space="preserve"><tspan
         y="397.81158"
         x="203.52431"
         id="tspan6249"
         sodipodi:role="line">30.0 mm</tspan></text>
    <path
       style="fill:none;stroke:#000000;stroke-width:1;stroke-linecap:butt;stroke-linejoin:miter;stroke-miterlimit:4;stroke-opacity:1;stroke-dasharray:2, 1;stroke-dashoffset:0;marker-start:url(#DistanceStart);marker-mid:none;marker-end:url(#DistanceEnd)"
       d="m 543.16771,432.35899 0,142.62066"
       id="path6255"
       inkscape:connector-curvature="0" />
    <text
       sodipodi:linespacing="125%"
       id="text6257"
       y="980.52332"
       x="910.12762"
       style="font-size:12px;font-style:normal;font-variant:normal;font-weight:normal;font-stretch:normal;line-height:125%;letter-spacing:0px;word-spacing:0px;fill:#000000;fill-opacity:1;stroke:none;font-family:Arial;-inkscape-font-specification:Arial"
       xml:space="preserve"><tspan
         y="980.52332"
         x="910.12762"
         id="tspan6259"
         sodipodi:role="line">Material: PMMA</tspan></text>
    <path
       inkscape:connector-curvature="0"
       id="path6261"
       d="m 898.5307,959.17561 0,35.10281"
       style="fill:none;stroke:#000000;stroke-width:1px;stroke-linecap:butt;stroke-linejoin:miter;stroke-opacity:1" />
    <text
       xml:space="preserve"
       style="font-size:12px;font-style:normal;font-variant:normal;font-weight:normal;font-stretch:normal;line-height:125%;letter-spacing:0px;word-spacing:0px;fill:#000000;fill-opacity:1;stroke:none;font-family:Arial;-inkscape-font-specification:Arial"
       x="954.06921"
       y="1015.5922"
       id="text6263"
       sodipodi:linespacing="125%"><tspan
         sodipodi:role="line"
         id="tspan6265"
         x="954.06921"
         y="1015.5922">Escala: 1:1</tspan></text>
    <path
       style="fill:none;stroke:#000000;stroke-width:1px;stroke-linecap:butt;stroke-linejoin:miter;stroke-opacity:1"
       d="m 937.92665,993.5208 0,35.1028"
       id="path6267"
       inkscape:connector-curvature="0" />
    <g
       id="View"
       transform="matrix(3.5597353,0,0,3.5597353,114.84685,399.14151)">
      <g
         style="fill:none;stroke:#000000;stroke-width:0.34999999;stroke-linecap:butt;stroke-linejoin:miter"
         id="g7127">
        <path
           inkscape:connector-curvature="0"
           id="1"
           d="M 9.4,50 9.4,9.4" />
        <path
           inkscape:connector-curvature="0"
           id="2"
           d="M 19.0181,22.4431 19.4892,21.75 19.6822,21.4915 19.753,21.4" />
        <path
           inkscape:connector-curvature="0"
           id="3"
           d="M 17.5,32.9708 17.1686,31.487 17.0437,30.4654 17,29.4" />
        <path
           inkscape:connector-curvature="0"
           id="4"
           d="m 16.0858,50 0,-2.8034" />
        <path
           inkscape:connector-curvature="0"
           d="M 16.0858,47.1966 A 3,3 0 0 1 12,44.4"
           id="path7133" />
        <path
           inkscape:connector-curvature="0"
           d="m 12,44.4 a 3,3 0 0 1 4.0858,-2.7966"
           id="path7135" />
        <path
           inkscape:connector-curvature="0"
           id="7"
           d="m 16.0858,41.6034 0,-24.4068" />
        <path
           inkscape:connector-curvature="0"
           d="M 16.0858,17.1966 A 3,3 0 0 1 12,14.4"
           id="path7138" />
        <path
           inkscape:connector-curvature="0"
           d="m 12,14.4 a 3,3 0 0 1 4.0858,-2.7966"
           id="path7140" />
        <path
           inkscape:connector-curvature="0"
           id="10"
           d="m 16.0858,11.6034 0,-2.2034" />
        <path
           inkscape:connector-curvature="0"
           id="11"
           d="m 9.4,9.4 6.6858,0" />
        <path
           inkscape:connector-curvature="0"
           id="12"
           d="m 9.4,50 6.6858,0" />
        <path
           inkscape:connector-curvature="0"
           id="13"
           d="m 17.5,9.4 -1.4142,0" />
        <path
           inkscape:connector-curvature="0"
           id="14"
           d="m 17.5,50 -1.4142,0" />
        <path
           inkscape:connector-curvature="0"
           id="15"
           d="M 17,29.4 17.0997,27.7965 17.2619,26.8051 17.5,25.8292" />
        <path
           inkscape:connector-curvature="0"
           id="16"
           d="M 17.5,32.9708 17.1555,31.4015 17.0391,30.4038 17,29.4" />
        <path
           inkscape:connector-curvature="0"
           id="17"
           d="m 16.0858,11.6034 0.7141,0.3971 0.3817,0.3407 0.3184,0.4005" />
        <path
           inkscape:connector-curvature="0"
           id="18"
           d="m 17.5,16.0583 -0.5405,0.6127 -0.4144,0.3002 -0.4593,0.2254" />
        <path
           inkscape:connector-curvature="0"
           id="19"
           d="m 16.0858,41.6034 0.7141,0.3971 0.3817,0.3407 0.3184,0.4005" />
        <path
           inkscape:connector-curvature="0"
           id="20"
           d="m 17.5,46.0583 -0.5405,0.6127 -0.4144,0.3002 -0.4593,0.2254" />
        <path
           inkscape:connector-curvature="0"
           id="21"
           d="M 50,50 50,9.4" />
        <path
           inkscape:connector-curvature="0"
           id="22"
           d="m 40.247,21.4 1.0923,1.6423 0.8509,1.8412 0.5415,1.8892 L 43,29.4" />
        <path
           inkscape:connector-curvature="0"
           id="23"
           d="M 17.5,50 50,50" />
        <path
           inkscape:connector-curvature="0"
           id="24"
           d="M 17.5,9.4 50,9.4" />
        <path
           inkscape:connector-curvature="0"
           id="25"
           d="M 17.5,12.7417 17.5,9.4" />
        <path
           inkscape:connector-curvature="0"
           d="M 17.5,12.7417 A 3,3 0 0 1 18,14.4"
           id="path7158" />
        <path
           inkscape:connector-curvature="0"
           d="m 18,14.4 a 3,3 0 0 1 -0.5,1.6583"
           id="path7160" />
        <path
           inkscape:connector-curvature="0"
           id="28"
           d="m 17.5,25.8292 0,-9.7709" />
        <path
           inkscape:connector-curvature="0"
           d="M 17.5,25.8292 A 13,13 0 0 1 43,29.4"
           id="path7163" />
        <path
           inkscape:connector-curvature="0"
           d="M 43,29.4 A 13,13 0 0 1 17.5,32.9708"
           id="path7165" />
        <path
           inkscape:connector-curvature="0"
           id="31"
           d="m 17.5,42.7417 0,-9.7709" />
        <path
           inkscape:connector-curvature="0"
           d="M 17.5,42.7417 A 3,3 0 0 1 18,44.4"
           id="path7168" />
        <path
           inkscape:connector-curvature="0"
           d="m 18,44.4 a 3,3 0 0 1 -0.5,1.6583"
           id="path7170" />
        <path
           inkscape:connector-curvature="0"
           id="34"
           d="m 17.5,50 0,-3.9417" />
        <path
           inkscape:connector-curvature="0"
           d="m 42,44.4 a 3,3 0 0 1 6,0"
           id="path7173" />
        <path
           inkscape:connector-curvature="0"
           d="m 48,44.4 a 3,3 0 0 1 -6,0"
           id="path7175" />
        <path
           inkscape:connector-curvature="0"
           d="m 42,14.4 a 3,3 0 0 1 6,0"
           id="path7177" />
        <path
           inkscape:connector-curvature="0"
           d="m 48,14.4 a 3,3 0 0 1 -6,0"
           id="path7179" />
      </g>
    </g>
    <g
       id="View001"
       transform="matrix(0,-3.5597353,3.5597353,0,114.84685,673.80341)">
      <g
         style="fill:none;stroke:#000000;stroke-width:0.34999999;stroke-linecap:butt;stroke-linejoin:miter"
         id="g7182">
        <path
           inkscape:connector-curvature="0"
           id="path7184"
           d="m 12.5,9.4 -25,0" />
        <path
           inkscape:connector-curvature="0"
           id="path7186"
           d="M 12.5,16.0858 12.5,12" />
        <path
           inkscape:connector-curvature="0"
           id="path7188"
           d="m 12.5,9.4 0,6.6858" />
        <path
           inkscape:connector-curvature="0"
           id="path7190"
           d="m -12.5,41.0859 25,-25.0001" />
        <path
           inkscape:connector-curvature="0"
           id="5"
           d="m -12.5,9.4 0,31.6859" />
        <path
           inkscape:connector-curvature="0"
           id="6"
           d="M -12.5,41.0859 -12.5,18" />
        <path
           inkscape:connector-curvature="0"
           id="path7194"
           d="m -12.5,18 0,-6" />
        <path
           inkscape:connector-curvature="0"
           id="8"
           d="M -12.5,41.0859 10.5858,18" />
        <path
           inkscape:connector-curvature="0"
           id="9"
           d="M 10.5858,18 12.5,16.0858" />
        <path
           inkscape:connector-curvature="0"
           id="path7198"
           d="M 8,50 0,50" />
        <path
           inkscape:connector-curvature="0"
           id="path7200"
           d="m 0,50 -8,0" />
        <path
           inkscape:connector-curvature="0"
           id="path7202"
           d="m 12.5,50 -25,0" />
        <path
           inkscape:connector-curvature="0"
           id="path7204"
           d="m 12.5,17.5 0,32.5" />
        <path
           inkscape:connector-curvature="0"
           id="path7206"
           d="M -12.5,42.5001 -12.5,50" />
        <path
           inkscape:connector-curvature="0"
           id="path7208"
           d="M -12.5,42.5001 12.5,17.5" />
        <path
           inkscape:connector-curvature="0"
           id="path7210"
           d="m -12.5,48 0,-5.4999" />
      </g>
    </g>
    <g
       id="View002"
       transform="matrix(3.5597353,0,0,3.5597353,456.27014,610.58979)">
      <g
         style="fill:none;stroke:#000000;stroke-width:0.34999999;stroke-linecap:butt;stroke-linejoin:miter"
         id="g7213">
        <path
           inkscape:connector-curvature="0"
           d="m -8,-29.4 a 8,8 0 1 0 8,-8"
           id="path7215" />
        <path
           inkscape:connector-curvature="0"
           d="m 0,-37.4 a 8,8 0 0 0 -8,8"
           id="path7217" />
        <path
           inkscape:connector-curvature="0"
           id="path7219"
           d="m 12.5,-50 0,40.6" />
        <path
           inkscape:connector-curvature="0"
           id="path7221"
           d="m 12.5,-9.4 -25,0" />
        <path
           inkscape:connector-curvature="0"
           id="path7223"
           d="m 12.5,-50 -25,0" />
        <path
           inkscape:connector-curvature="0"
           id="path7225"
           d="m -12.5,-50 0,40.6" />
        <path
           inkscape:connector-curvature="0"
           id="path7227"
           d="m 0,-21.4 2.27123,-0.3292 2.22418,-1.0533 1.68057,-1.5325 1.23289,-2.067 0.55242,-2.2319 L 7.8167,-31.1027 7.05705,-33.168 5.66816,-35.0455 3.84871,-36.4134 2.20431,-37.0903 0,-37.4" />
        <path
           inkscape:connector-curvature="0"
           id="path7229"
           d="m -6.07087,-34.61 -1.25032,1.9851 -0.48677,1.4826 L -8,-29.4" />
        <path
           inkscape:connector-curvature="0"
           id="path7231"
           d="m 12.5,-17.4 0,-12" />
        <path
           inkscape:connector-curvature="0"
           id="path7233"
           d="m 12.5,-29.4 0,-12" />
        <path
           inkscape:connector-curvature="0"
           id="path7235"
           d="m 12.5,-41.4 0,-3" />
        <path
           inkscape:connector-curvature="0"
           id="path7237"
           d="m 12.5,-44.4 0,-3" />
        <path
           inkscape:connector-curvature="0"
           id="path7239"
           d="m 12.5,-11.4 0,-3" />
        <path
           inkscape:connector-curvature="0"
           id="path7241"
           d="m 12.5,-14.4 0,-3" />
        <path
           inkscape:connector-curvature="0"
           id="path7243"
           d="m -12.5,-11.4 0,-3" />
        <path
           inkscape:connector-curvature="0"
           id="path7245"
           d="m -12.5,-14.4 0,-3" />
        <path
           inkscape:connector-curvature="0"
           id="path7247"
           d="m -12.5,-25.8295 0,-3.5705" />
        <path
           inkscape:connector-curvature="0"
           id="path7249"
           d="m -12.5,-29.4 0,-3.5705" />
        <path
           inkscape:connector-curvature="0"
           id="path7251"
           d="m -12.5,-41.4 0,-3" />
        <path
           inkscape:connector-curvature="0"
           id="path7253"
           d="m -12.5,-44.4 0,-3" />
      </g>
    </g>
    <g
       id="View003"
       transform="matrix(1.7798677,-3.0828212,3.0828212,1.7798677,556.85315,804.52223)">
      <g
         id="g7256"
         style="fill:none;stroke:#000000;stroke-width:0.34999999;stroke-linecap:butt;stroke-linejoin:miter">
        <path
           d="M 10.7499,18.0397 A 8,4.6188 60 0 0 6.37455,13.4859"
           id="path7258"
           inkscape:connector-curvature="0" />
        <path
           id="path7260"
           d="m -2.19203,31.8842 0,-33.14977"
           inkscape:connector-curvature="0" />
        <path
           id="path7262"
           d="M -2.19203,31.8842 15.4856,42.0904"
           inkscape:connector-curvature="0" />
        <path
           id="path7264"
           d="M 16.7286,13.4886 15.8471,11.3926 15.035,10.2704 13.9675,9.40888"
           inkscape:connector-curvature="0" />
        <path
           id="path7266"
           d="M 6.36396,13.7988 6.72135,12.036 7.65127,10.6217 8.93673,9.60777"
           inkscape:connector-curvature="0" />
        <path
           id="path7268"
           d="M 8.93673,9.60777 10.8385,8.91265 12.4108,8.87792 13.9675,9.40888"
           inkscape:connector-curvature="0" />
        <path
           id="path7270"
           d="M 8.60762,18.5116 7.16321,16.6004 6.57834,15.2372 6.36396,13.7988"
           inkscape:connector-curvature="0" />
        <path
           id="path7272"
           d="m 2.53554,29.1547 0,-2.2889"
           inkscape:connector-curvature="0" />
        <path
           d="M 2.53554,26.8658 A 3,1.73205 120 0 1 0.267767,27.6237"
           id="path7274"
           inkscape:connector-curvature="0" />
        <path
           d="m 0.267767,27.6237 a 3,1.73205 120 0 1 -0.62132,-1.3733"
           id="path7276"
           inkscape:connector-curvature="0" />
        <path
           d="M -0.353553,26.2504 A 3,1.73205 120 0 1 2.53554,22.2989"
           id="path7278"
           inkscape:connector-curvature="0" />
        <path
           id="path7280"
           d="m 2.53554,22.2989 0,-19.92803"
           inkscape:connector-curvature="0" />
        <path
           d="M 2.53554,2.37087 A 3,1.73205 120 0 1 0.267767,3.1288"
           id="path7282"
           inkscape:connector-curvature="0" />
        <path
           d="M 0.267767,3.1288 A 3,1.73205 120 0 1 -0.353553,1.75547"
           id="path7284"
           inkscape:connector-curvature="0" />
        <path
           d="M -0.353553,1.75547 A 3,1.73205 120 0 1 2.53554,-2.19598"
           id="path7286"
           inkscape:connector-curvature="0" />
        <path
           id="path7288"
           d="m 2.53554,-2.19598 0,-1.79905"
           inkscape:connector-curvature="0" />
        <path
           id="path7290"
           d="M -2.19203,-1.26557 2.53554,-3.99503"
           inkscape:connector-curvature="0" />
        <path
           id="path7292"
           d="M -2.19203,31.8842 2.53554,29.1547"
           inkscape:connector-curvature="0" />
        <path
           id="path7294"
           d="m 3.53554,-3.99504 -1,1e-5"
           inkscape:connector-curvature="0" />
        <path
           id="path7296"
           d="m 37.8909,29.1547 -35.35536,0"
           inkscape:connector-curvature="0" />
        <path
           id="path7298"
           d="M 15.4856,42.0904 37.8909,29.1547"
           inkscape:connector-curvature="0" />
        <path
           id="path7300"
           d="m 37.8909,29.1547 0,-0.5773"
           inkscape:connector-curvature="0" />
        <path
           d="M 31.2181,5.6587 A 13,7.50555 120 0 1 33.8188,5.00352"
           id="path7302"
           inkscape:connector-curvature="0" />
        <path
           id="path7304"
           d="M 3.82842,12.3349 4.23256,10.1517 5.40305,8.06398 7.28953,6.16004 10.2471,4.28692 14.055,2.83067 17.7056,2.04836 21.561,1.72711"
           inkscape:connector-curvature="0" />
        <path
           id="path7306"
           d="m 30.0318,2.72813 0.8552,0.24795 0.5227,0.16783 0.513,0.17755"
           inkscape:connector-curvature="0" />
        <path
           id="26"
           d="M 7.1233,18.3983 5.32173,16.5197 4.20849,14.471 3.82842,12.3349"
           inkscape:connector-curvature="0" />
        <path
           id="27"
           d="m 2.53554,-2.19598 0.4627,0.12273 0.27504,0.09257 0.26226,0.1042"
           inkscape:connector-curvature="0" />
        <path
           id="path7310"
           d="M 3.53554,2.05137 3.10969,2.21254 2.82776,2.29792 2.53554,2.37087"
           inkscape:connector-curvature="0" />
        <path
           id="29"
           d="m 2.53554,22.2989 0.4627,0.1227 0.27504,0.0926 0.26226,0.1042"
           inkscape:connector-curvature="0" />
        <path
           id="30"
           d="m 3.53554,26.5463 -0.42585,0.1611 -0.28193,0.0854 -0.29222,0.073"
           inkscape:connector-curvature="0" />
        <path
           d="M 41.0122,6.85857 A 8,4.6188 60 0 0 31.3553,-3.33562"
           id="path7314"
           inkscape:connector-curvature="0" />
        <path
           d="m 31.3553,-3.33562 a 8,4.6188 60 0 0 4,13.46022"
           id="path7316"
           inkscape:connector-curvature="0" />
        <path
           d="m 35.3553,10.1246 a 8,4.6188 60 0 0 4,0.3962"
           id="path7318"
           inkscape:connector-curvature="0" />
        <path
           d="M 39.3553,10.5208 A 8,4.6188 60 0 0 41.0122,6.85857"
           id="path7320"
           inkscape:connector-curvature="0" />
        <path
           id="35"
           d="m 26.5165,15.3093 0,-33.1497"
           inkscape:connector-curvature="0" />
        <path
           id="36"
           d="M 26.5165,-17.8404 44.1942,-7.63424"
           inkscape:connector-curvature="0" />
        <path
           id="37"
           d="M 26.5165,15.3093 44.1942,25.5155"
           inkscape:connector-curvature="0" />
        <path
           id="38"
           d="m 44.1942,25.5155 0,-33.14974"
           inkscape:connector-curvature="0" />
        <path
           id="39"
           d="m 36.0025,10.4553 0.0411,-0.3222 0.0141,-0.20691 0.0047,-0.20988"
           inkscape:connector-curvature="0" />
        <path
           id="40"
           d="M 36.0624,9.71631 35.6821,7.79322 34.4552,5.72998 32.3421,3.65203 29.8438,1.88128"
           inkscape:connector-curvature="0" />
        <path
           id="41"
           d="M 3.53554,28.5774 26.5165,15.3093"
           inkscape:connector-curvature="0" />
        <path
           id="42"
           d="M 3.53554,-4.57239 26.5165,-17.8404"
           inkscape:connector-curvature="0" />
        <path
           id="43"
           d="m 3.53554,-1.8439 0,-2.72849"
           inkscape:connector-curvature="0" />
        <path
           d="m 3.53554,-1.8439 a 3,1.73205 120 0 1 0.35355,1.149877"
           id="path7331"
           inkscape:connector-curvature="0" />
        <path
           d="M 3.88909,-0.694023 A 3,1.73205 120 0 1 3.53554,0.864088"
           id="path7333"
           inkscape:connector-curvature="0" />
        <path
           id="46"
           d="m 3.53554,8.84203 0,-7.977942"
           inkscape:connector-curvature="0" />
        <path
           d="M 3.53554,8.84203 A 13,7.50555 120 0 1 18.8744,-4.60388"
           id="path7336"
           inkscape:connector-curvature="0" />
        <path
           d="m 18.8744,-4.60388 a 13,7.50555 120 0 1 2.6924,5.9511"
           id="path7338"
           inkscape:connector-curvature="0" />
        <path
           d="M 21.5668,1.34722 A 13,7.50555 120 0 1 5.87437,17.9128"
           id="path7340"
           inkscape:connector-curvature="0" />
        <path
           d="M 5.87437,17.9128 A 13,7.50555 120 0 1 3.53554,14.6731"
           id="path7342"
           inkscape:connector-curvature="0" />
        <path
           id="51"
           d="m 3.53554,22.651 0,-7.9779"
           inkscape:connector-curvature="0" />
        <path
           d="m 3.53554,22.651 a 3,1.73205 120 0 1 0.35355,1.1499"
           id="path7345"
           inkscape:connector-curvature="0" />
        <path
           d="M 3.88909,23.8009 A 3,1.73205 120 0 1 3.53554,25.359"
           id="path7347"
           inkscape:connector-curvature="0" />
        <path
           id="54"
           d="m 3.53554,28.5774 0,-3.2184"
           inkscape:connector-curvature="0" />
        <path
           d="M 20.8597,14.0029 A 3,1.73205 120 0 1 24.481,10.1801"
           id="path7350"
           inkscape:connector-curvature="0" />
        <path
           d="m 24.481,10.1801 a 3,1.73205 120 0 1 0.6213,1.3733"
           id="path7352"
           inkscape:connector-curvature="0" />
        <path
           d="M 25.1023,11.5534 A 3,1.73205 120 0 1 21.481,15.3762"
           id="path7354"
           inkscape:connector-curvature="0" />
        <path
           d="M 21.481,15.3762 A 3,1.73205 120 0 1 20.8597,14.0029"
           id="path7356"
           inkscape:connector-curvature="0" />
        <path
           d="m 20.8597,-10.492 a 3,1.73205 120 0 1 3.6213,-3.8228"
           id="path7358"
           inkscape:connector-curvature="0" />
        <path
           d="m 24.481,-14.3148 a 3,1.73205 120 0 1 0.6213,1.3733"
           id="path7360"
           inkscape:connector-curvature="0" />
        <path
           d="M 25.1023,-12.9415 A 3,1.73205 120 0 1 21.481,-9.11865"
           id="path7362"
           inkscape:connector-curvature="0" />
        <path
           d="M 21.481,-9.11865 A 3,1.73205 120 0 1 20.8597,-10.492"
           id="path7364"
           inkscape:connector-curvature="0" />
        <path
           id="63"
           d="m 38.8909,28.5774 5.3033,-3.0619"
           inkscape:connector-curvature="0" />
        <path
           id="64"
           d="m 38.8909,28.5774 -35.35536,0"
           inkscape:connector-curvature="0" />
        <path
           id="65"
           d="M 6.71919,18.2876 5.00837,16.7695 4.17503,15.744 3.53554,14.6731"
           inkscape:connector-curvature="0" />
        <path
           id="66"
           d="M 3.53554,8.84203 5.06715,6.70296 7.35041,4.80139 10.3333,3.20326 14.5249,1.87781 17.9822,1.31218 21.5651,1.14502"
           inkscape:connector-curvature="0" />
        <path
           id="67"
           d="m 29.9551,2.41982 0.6377,0.20862 0.3911,0.13775 0.385,0.14333"
           inkscape:connector-curvature="0" />
      </g>
    </g>
    <text
       xml:space="preserve"
       style="font-size:12px;font-style:normal;font-variant:normal;font-weight:normal;font-stretch:normal;line-height:125%;letter-spacing:0px;word-spacing:0px;fill:#000000;fill-opacity:1;stroke:none;font-family:Arial;-inkscape-font-specification:Arial"
       x="554.09485"
       y="504.60785"
       id="text7833"
       sodipodi:linespacing="125%"><tspan
         sodipodi:role="line"
         id="tspan7835"
         x="554.09485"
         y="504.60785">40.6 mm</tspan></text>
  </g>
</svg>
